<svg width="18" height="22" viewBox="0 0 18 22" fill="none" xmlns="http://www.w3.org/2000/svg">
<path d="M11.74 8.00003L11.394 17M6.606 17L6.26 8.00003M16.228 4.79003C16.57 4.84203 16.91 4.89703 17.25 4.95603M16.228 4.79103L15.16 18.673C15.1164 19.2383 14.8611 19.7662 14.445 20.1513C14.029 20.5364 13.4829 20.7502 12.916 20.75H5.084C4.5171 20.7502 3.97102 20.5364 3.55498 20.1513C3.13894 19.7662 2.88359 19.2383 2.84 18.673L1.772 4.79003M16.228 4.79003C15.0739 4.61555 13.9138 4.48313 12.75 4.39303M0.75 4.95503C1.09 4.89603 1.43 4.84103 1.772 4.79003M1.772 4.79003C2.92613 4.61555 4.08623 4.48313 5.25 4.39303M12.75 4.39303V3.47703C12.75 2.29703 11.84 1.31303 10.66 1.27603C9.55362 1.24067 8.44638 1.24067 7.34 1.27603C6.16 1.31303 5.25 2.29803 5.25 3.47703V4.39303M12.75 4.39303C10.2537 4.20011 7.74628 4.20011 5.25 4.39303" stroke="#B91C1C" stroke-width="1.5" stroke-linecap="round" stroke-linejoin="round"/>
</svg>
